<svg xmlns="http://www.w3.org/2000/svg" width="1006.5" viewBox="0 0 1006.5 1290" height="1290" version="1.0"><g fill="#A6A6A6"><g><g><path d="M 12.570312 0 L 12.570312 -76.996094 L 45.785156 -76.996094 C 54.328125 -76.996094 60.96875 -75.273438 65.707031 -71.820312 C 70.445312 -68.371094 72.816406 -63.503906 72.816406 -57.214844 C 72.816406 -53.046875 71.839844 -49.527344 69.890625 -46.664062 C 67.941406 -43.800781 65.3125 -41.628906 61.996094 -40.152344 C 58.683594 -38.675781 55.019531 -37.9375 51 -37.9375 L 52.933594 -40.613281 C 57.832031 -40.613281 62.070312 -39.851562 65.640625 -38.328125 C 69.210938 -36.804688 71.972656 -34.554688 73.933594 -31.578125 C 75.890625 -28.605469 76.871094 -24.933594 76.871094 -20.566406 C 76.871094 -14.027344 74.464844 -8.96875 69.652344 -5.378906 C 64.839844 -1.792969 57.617188 0 47.984375 0 Z M 20.632812 -6.703125 L 47.800781 -6.703125 C 54.601562 -6.703125 59.792969 -7.859375 63.375 -10.175781 C 66.957031 -12.488281 68.75 -16.160156 68.75 -21.1875 C 68.75 -26.214844 66.957031 -29.890625 63.375 -32.210938 C 59.792969 -34.53125 54.601562 -35.691406 47.800781 -35.691406 L 19.832031 -35.691406 L 19.832031 -42.394531 L 45.226562 -42.394531 C 51.394531 -42.394531 56.183594 -43.558594 59.589844 -45.886719 C 62.992188 -48.21875 64.695312 -51.703125 64.695312 -56.34375 C 64.695312 -60.984375 62.992188 -64.46875 59.589844 -66.796875 C 56.183594 -69.128906 51.394531 -70.292969 45.226562 -70.292969 L 20.632812 -70.292969 Z M 20.632812 -6.703125" transform="translate(0 369.07)"/></g></g></g><g fill="#A6A6A6"><g><g><path d="M 12.570312 0 L 12.570312 -76.996094 L 20.632812 -76.996094 L 20.632812 -7.074219 L 63.753906 -7.074219 L 63.753906 0 Z M 12.570312 0" transform="translate(82.934 369.07)"/></g></g></g><g fill="#A6A6A6"><g><g><path d="M 0.242188 0 L 35.429688 -76.996094 L 43.425781 -76.996094 L 78.675781 0 L 70.097656 0 L 37.726562 -72.308594 L 41.066406 -72.308594 L 8.691406 0 Z M 14.070312 -20.53125 L 16.476562 -27.167969 L 61.269531 -27.167969 L 63.742188 -20.53125 Z M 14.070312 -20.53125" transform="translate(147.72 369.07)"/></g></g></g><g fill="#A6A6A6"><g><g><path d="M 45.976562 0.703125 C 40.207031 0.703125 34.867188 -0.265625 29.960938 -2.210938 C 25.054688 -4.152344 20.789062 -6.894531 17.171875 -10.4375 C 13.554688 -13.976562 10.734375 -18.125 8.710938 -22.878906 C 6.691406 -27.636719 5.679688 -32.839844 5.679688 -38.5 C 5.679688 -44.15625 6.691406 -49.359375 8.710938 -54.117188 C 10.734375 -58.871094 13.5625 -63.019531 17.203125 -66.558594 C 20.84375 -70.101562 25.117188 -72.84375 30.023438 -74.785156 C 34.929688 -76.730469 40.269531 -77.699219 46.039062 -77.699219 C 51.679688 -77.699219 56.941406 -76.757812 61.820312 -74.875 C 66.699219 -72.992188 70.851562 -70.171875 74.277344 -66.414062 L 69.09375 -61.261719 C 65.945312 -64.46875 62.460938 -66.796875 58.632812 -68.253906 C 54.804688 -69.710938 50.710938 -70.4375 46.351562 -70.4375 C 41.695312 -70.4375 37.386719 -69.636719 33.417969 -68.035156 C 29.457031 -66.4375 26.003906 -64.199219 23.066406 -61.320312 C 20.132812 -58.4375 17.851562 -55.0625 16.230469 -51.183594 C 14.609375 -47.308594 13.800781 -43.082031 13.800781 -38.5 C 13.800781 -33.914062 14.609375 -29.683594 16.230469 -25.808594 C 17.851562 -21.933594 20.132812 -18.558594 23.066406 -15.675781 C 26.003906 -12.796875 29.457031 -10.558594 33.417969 -8.957031 C 37.386719 -7.359375 41.695312 -6.558594 46.351562 -6.558594 C 50.710938 -6.558594 54.804688 -7.292969 58.632812 -8.765625 C 62.460938 -10.238281 65.945312 -12.597656 69.09375 -15.847656 L 74.277344 -10.691406 C 70.851562 -6.933594 66.699219 -4.097656 61.820312 -2.175781 C 56.941406 -0.253906 51.660156 0.703125 45.976562 0.703125 Z M 45.976562 0.703125" transform="translate(226.584 369.07)"/></g></g></g><g fill="#A6A6A6"><g><g><path d="M 19.628906 -19.085938 L 19.257812 -29.035156 L 65.851562 -76.996094 L 75.238281 -76.996094 L 41.199219 -41.40625 L 36.636719 -36.457031 Z M 12.570312 0 L 12.570312 -76.996094 L 20.632812 -76.996094 L 20.632812 0 Z M 67.882812 0 L 34.679688 -38.289062 L 40.132812 -44.207031 L 77.519531 0 Z M 67.882812 0" transform="translate(305.668 369.07)"/></g></g></g><g fill="#A6A6A6"><g><g><path d="M 12.570312 0 L 12.570312 -76.996094 L 45.785156 -76.996094 C 54.328125 -76.996094 60.96875 -75.273438 65.707031 -71.820312 C 70.445312 -68.371094 72.816406 -63.503906 72.816406 -57.214844 C 72.816406 -53.046875 71.839844 -49.527344 69.890625 -46.664062 C 67.941406 -43.800781 65.3125 -41.628906 61.996094 -40.152344 C 58.683594 -38.675781 55.019531 -37.9375 51 -37.9375 L 52.933594 -40.613281 C 57.832031 -40.613281 62.070312 -39.851562 65.640625 -38.328125 C 69.210938 -36.804688 71.972656 -34.554688 73.933594 -31.578125 C 75.890625 -28.605469 76.871094 -24.933594 76.871094 -20.566406 C 76.871094 -14.027344 74.464844 -8.96875 69.652344 -5.378906 C 64.839844 -1.792969 57.617188 0 47.984375 0 Z M 20.632812 -6.703125 L 47.800781 -6.703125 C 54.601562 -6.703125 59.792969 -7.859375 63.375 -10.175781 C 66.957031 -12.488281 68.75 -16.160156 68.75 -21.1875 C 68.75 -26.214844 66.957031 -29.890625 63.375 -32.210938 C 59.792969 -34.53125 54.601562 -35.691406 47.800781 -35.691406 L 19.832031 -35.691406 L 19.832031 -42.394531 L 45.226562 -42.394531 C 51.394531 -42.394531 56.183594 -43.558594 59.589844 -45.886719 C 62.992188 -48.21875 64.695312 -51.703125 64.695312 -56.34375 C 64.695312 -60.984375 62.992188 -64.46875 59.589844 -66.796875 C 56.183594 -69.128906 51.394531 -70.292969 45.226562 -70.292969 L 20.632812 -70.292969 Z M 20.632812 -6.703125" transform="translate(0 237.32)"/></g></g></g><g fill="#A6A6A6"><g><g><path d="M 12.570312 0 L 12.570312 -76.996094 L 20.632812 -76.996094 L 20.632812 -7.074219 L 63.753906 -7.074219 L 63.753906 0 Z M 12.570312 0" transform="translate(82.934 237.32)"/></g></g></g><g fill="#A6A6A6"><g><g><path d="M 0.242188 0 L 35.429688 -76.996094 L 43.425781 -76.996094 L 78.675781 0 L 70.097656 0 L 37.726562 -72.308594 L 41.066406 -72.308594 L 8.691406 0 Z M 14.070312 -20.53125 L 16.476562 -27.167969 L 61.269531 -27.167969 L 63.742188 -20.53125 Z M 14.070312 -20.53125" transform="translate(147.72 237.32)"/></g></g></g><g fill="#A6A6A6"><g><g><path d="M 45.976562 0.703125 C 40.207031 0.703125 34.867188 -0.265625 29.960938 -2.210938 C 25.054688 -4.152344 20.789062 -6.894531 17.171875 -10.4375 C 13.554688 -13.976562 10.734375 -18.125 8.710938 -22.878906 C 6.691406 -27.636719 5.679688 -32.839844 5.679688 -38.5 C 5.679688 -44.15625 6.691406 -49.359375 8.710938 -54.117188 C 10.734375 -58.871094 13.5625 -63.019531 17.203125 -66.558594 C 20.84375 -70.101562 25.117188 -72.84375 30.023438 -74.785156 C 34.929688 -76.730469 40.269531 -77.699219 46.039062 -77.699219 C 51.679688 -77.699219 56.941406 -76.757812 61.820312 -74.875 C 66.699219 -72.992188 70.851562 -70.171875 74.277344 -66.414062 L 69.09375 -61.261719 C 65.945312 -64.46875 62.460938 -66.796875 58.632812 -68.253906 C 54.804688 -69.710938 50.710938 -70.4375 46.351562 -70.4375 C 41.695312 -70.4375 37.386719 -69.636719 33.417969 -68.035156 C 29.457031 -66.4375 26.003906 -64.199219 23.066406 -61.320312 C 20.132812 -58.4375 17.851562 -55.0625 16.230469 -51.183594 C 14.609375 -47.308594 13.800781 -43.082031 13.800781 -38.5 C 13.800781 -33.914062 14.609375 -29.683594 16.230469 -25.808594 C 17.851562 -21.933594 20.132812 -18.558594 23.066406 -15.675781 C 26.003906 -12.796875 29.457031 -10.558594 33.417969 -8.957031 C 37.386719 -7.359375 41.695312 -6.558594 46.351562 -6.558594 C 50.710938 -6.558594 54.804688 -7.292969 58.632812 -8.765625 C 62.460938 -10.238281 65.945312 -12.597656 69.09375 -15.847656 L 74.277344 -10.691406 C 70.851562 -6.933594 66.699219 -4.097656 61.820312 -2.175781 C 56.941406 -0.253906 51.660156 0.703125 45.976562 0.703125 Z M 45.976562 0.703125" transform="translate(226.584 237.32)"/></g></g></g><g fill="#A6A6A6"><g><g><path d="M 19.628906 -19.085938 L 19.257812 -29.035156 L 65.851562 -76.996094 L 75.238281 -76.996094 L 41.199219 -41.40625 L 36.636719 -36.457031 Z M 12.570312 0 L 12.570312 -76.996094 L 20.632812 -76.996094 L 20.632812 0 Z M 67.882812 0 L 34.679688 -38.289062 L 40.132812 -44.207031 L 77.519531 0 Z M 67.882812 0" transform="translate(305.668 237.32)"/></g></g></g><g fill="#A6A6A6"><g><g><path d="M 12.570312 0 L 12.570312 -76.996094 L 45.785156 -76.996094 C 54.328125 -76.996094 60.96875 -75.273438 65.707031 -71.820312 C 70.445312 -68.371094 72.816406 -63.503906 72.816406 -57.214844 C 72.816406 -53.046875 71.839844 -49.527344 69.890625 -46.664062 C 67.941406 -43.800781 65.3125 -41.628906 61.996094 -40.152344 C 58.683594 -38.675781 55.019531 -37.9375 51 -37.9375 L 52.933594 -40.613281 C 57.832031 -40.613281 62.070312 -39.851562 65.640625 -38.328125 C 69.210938 -36.804688 71.972656 -34.554688 73.933594 -31.578125 C 75.890625 -28.605469 76.871094 -24.933594 76.871094 -20.566406 C 76.871094 -14.027344 74.464844 -8.96875 69.652344 -5.378906 C 64.839844 -1.792969 57.617188 0 47.984375 0 Z M 20.632812 -6.703125 L 47.800781 -6.703125 C 54.601562 -6.703125 59.792969 -7.859375 63.375 -10.175781 C 66.957031 -12.488281 68.75 -16.160156 68.75 -21.1875 C 68.75 -26.214844 66.957031 -29.890625 63.375 -32.210938 C 59.792969 -34.53125 54.601562 -35.691406 47.800781 -35.691406 L 19.832031 -35.691406 L 19.832031 -42.394531 L 45.226562 -42.394531 C 51.394531 -42.394531 56.183594 -43.558594 59.589844 -45.886719 C 62.992188 -48.21875 64.695312 -51.703125 64.695312 -56.34375 C 64.695312 -60.984375 62.992188 -64.46875 59.589844 -66.796875 C 56.183594 -69.128906 51.394531 -70.292969 45.226562 -70.292969 L 20.632812 -70.292969 Z M 20.632812 -6.703125" transform="translate(0 105.57)"/></g></g></g><g fill="#A6A6A6"><g><g><path d="M 12.570312 0 L 12.570312 -76.996094 L 20.632812 -76.996094 L 20.632812 -7.074219 L 63.753906 -7.074219 L 63.753906 0 Z M 12.570312 0" transform="translate(82.934 105.57)"/></g></g></g><g fill="#A6A6A6"><g><g><path d="M 0.242188 0 L 35.429688 -76.996094 L 43.425781 -76.996094 L 78.675781 0 L 70.097656 0 L 37.726562 -72.308594 L 41.066406 -72.308594 L 8.691406 0 Z M 14.070312 -20.53125 L 16.476562 -27.167969 L 61.269531 -27.167969 L 63.742188 -20.53125 Z M 14.070312 -20.53125" transform="translate(147.72 105.57)"/></g></g></g><g fill="#A6A6A6"><g><g><path d="M 45.976562 0.703125 C 40.207031 0.703125 34.867188 -0.265625 29.960938 -2.210938 C 25.054688 -4.152344 20.789062 -6.894531 17.171875 -10.4375 C 13.554688 -13.976562 10.734375 -18.125 8.710938 -22.878906 C 6.691406 -27.636719 5.679688 -32.839844 5.679688 -38.5 C 5.679688 -44.15625 6.691406 -49.359375 8.710938 -54.117188 C 10.734375 -58.871094 13.5625 -63.019531 17.203125 -66.558594 C 20.84375 -70.101562 25.117188 -72.84375 30.023438 -74.785156 C 34.929688 -76.730469 40.269531 -77.699219 46.039062 -77.699219 C 51.679688 -77.699219 56.941406 -76.757812 61.820312 -74.875 C 66.699219 -72.992188 70.851562 -70.171875 74.277344 -66.414062 L 69.09375 -61.261719 C 65.945312 -64.46875 62.460938 -66.796875 58.632812 -68.253906 C 54.804688 -69.710938 50.710938 -70.4375 46.351562 -70.4375 C 41.695312 -70.4375 37.386719 -69.636719 33.417969 -68.035156 C 29.457031 -66.4375 26.003906 -64.199219 23.066406 -61.320312 C 20.132812 -58.4375 17.851562 -55.0625 16.230469 -51.183594 C 14.609375 -47.308594 13.800781 -43.082031 13.800781 -38.5 C 13.800781 -33.914062 14.609375 -29.683594 16.230469 -25.808594 C 17.851562 -21.933594 20.132812 -18.558594 23.066406 -15.675781 C 26.003906 -12.796875 29.457031 -10.558594 33.417969 -8.957031 C 37.386719 -7.359375 41.695312 -6.558594 46.351562 -6.558594 C 50.710938 -6.558594 54.804688 -7.292969 58.632812 -8.765625 C 62.460938 -10.238281 65.945312 -12.597656 69.09375 -15.847656 L 74.277344 -10.691406 C 70.851562 -6.933594 66.699219 -4.097656 61.820312 -2.175781 C 56.941406 -0.253906 51.660156 0.703125 45.976562 0.703125 Z M 45.976562 0.703125" transform="translate(226.584 105.57)"/></g></g></g><g fill="#A6A6A6"><g><g><path d="M 19.628906 -19.085938 L 19.257812 -29.035156 L 65.851562 -76.996094 L 75.238281 -76.996094 L 41.199219 -41.40625 L 36.636719 -36.457031 Z M 12.570312 0 L 12.570312 -76.996094 L 20.632812 -76.996094 L 20.632812 0 Z M 67.882812 0 L 34.679688 -38.289062 L 40.132812 -44.207031 L 77.519531 0 Z M 67.882812 0" transform="translate(305.668 105.57)"/></g></g></g><g fill="#A6A6A6"><g><g><path d="M 12.570312 0 L 12.570312 -76.996094 L 45.785156 -76.996094 C 54.328125 -76.996094 60.96875 -75.273438 65.707031 -71.820312 C 70.445312 -68.371094 72.816406 -63.503906 72.816406 -57.214844 C 72.816406 -53.046875 71.839844 -49.527344 69.890625 -46.664062 C 67.941406 -43.800781 65.3125 -41.628906 61.996094 -40.152344 C 58.683594 -38.675781 55.019531 -37.9375 51 -37.9375 L 52.933594 -40.613281 C 57.832031 -40.613281 62.070312 -39.851562 65.640625 -38.328125 C 69.210938 -36.804688 71.972656 -34.554688 73.933594 -31.578125 C 75.890625 -28.605469 76.871094 -24.933594 76.871094 -20.566406 C 76.871094 -14.027344 74.464844 -8.96875 69.652344 -5.378906 C 64.839844 -1.792969 57.617188 0 47.984375 0 Z M 20.632812 -6.703125 L 47.800781 -6.703125 C 54.601562 -6.703125 59.792969 -7.859375 63.375 -10.175781 C 66.957031 -12.488281 68.75 -16.160156 68.75 -21.1875 C 68.75 -26.214844 66.957031 -29.890625 63.375 -32.210938 C 59.792969 -34.53125 54.601562 -35.691406 47.800781 -35.691406 L 19.832031 -35.691406 L 19.832031 -42.394531 L 45.226562 -42.394531 C 51.394531 -42.394531 56.183594 -43.558594 59.589844 -45.886719 C 62.992188 -48.21875 64.695312 -51.703125 64.695312 -56.34375 C 64.695312 -60.984375 62.992188 -64.46875 59.589844 -66.796875 C 56.183594 -69.128906 51.394531 -70.292969 45.226562 -70.292969 L 20.632812 -70.292969 Z M 20.632812 -6.703125" transform="translate(0 500.82)"/></g></g></g><g fill="#A6A6A6"><g><g><path d="M 12.570312 0 L 12.570312 -76.996094 L 20.632812 -76.996094 L 20.632812 -7.074219 L 63.753906 -7.074219 L 63.753906 0 Z M 12.570312 0" transform="translate(82.934 500.82)"/></g></g></g><g fill="#A6A6A6"><g><g><path d="M 0.242188 0 L 35.429688 -76.996094 L 43.425781 -76.996094 L 78.675781 0 L 70.097656 0 L 37.726562 -72.308594 L 41.066406 -72.308594 L 8.691406 0 Z M 14.070312 -20.53125 L 16.476562 -27.167969 L 61.269531 -27.167969 L 63.742188 -20.53125 Z M 14.070312 -20.53125" transform="translate(147.72 500.82)"/></g></g></g><g fill="#A6A6A6"><g><g><path d="M 45.976562 0.703125 C 40.207031 0.703125 34.867188 -0.265625 29.960938 -2.210938 C 25.054688 -4.152344 20.789062 -6.894531 17.171875 -10.4375 C 13.554688 -13.976562 10.734375 -18.125 8.710938 -22.878906 C 6.691406 -27.636719 5.679688 -32.839844 5.679688 -38.5 C 5.679688 -44.15625 6.691406 -49.359375 8.710938 -54.117188 C 10.734375 -58.871094 13.5625 -63.019531 17.203125 -66.558594 C 20.84375 -70.101562 25.117188 -72.84375 30.023438 -74.785156 C 34.929688 -76.730469 40.269531 -77.699219 46.039062 -77.699219 C 51.679688 -77.699219 56.941406 -76.757812 61.820312 -74.875 C 66.699219 -72.992188 70.851562 -70.171875 74.277344 -66.414062 L 69.09375 -61.261719 C 65.945312 -64.46875 62.460938 -66.796875 58.632812 -68.253906 C 54.804688 -69.710938 50.710938 -70.4375 46.351562 -70.4375 C 41.695312 -70.4375 37.386719 -69.636719 33.417969 -68.035156 C 29.457031 -66.4375 26.003906 -64.199219 23.066406 -61.320312 C 20.132812 -58.4375 17.851562 -55.0625 16.230469 -51.183594 C 14.609375 -47.308594 13.800781 -43.082031 13.800781 -38.5 C 13.800781 -33.914062 14.609375 -29.683594 16.230469 -25.808594 C 17.851562 -21.933594 20.132812 -18.558594 23.066406 -15.675781 C 26.003906 -12.796875 29.457031 -10.558594 33.417969 -8.957031 C 37.386719 -7.359375 41.695312 -6.558594 46.351562 -6.558594 C 50.710938 -6.558594 54.804688 -7.292969 58.632812 -8.765625 C 62.460938 -10.238281 65.945312 -12.597656 69.09375 -15.847656 L 74.277344 -10.691406 C 70.851562 -6.933594 66.699219 -4.097656 61.820312 -2.175781 C 56.941406 -0.253906 51.660156 0.703125 45.976562 0.703125 Z M 45.976562 0.703125" transform="translate(226.584 500.82)"/></g></g></g><g fill="#A6A6A6"><g><g><path d="M 19.628906 -19.085938 L 19.257812 -29.035156 L 65.851562 -76.996094 L 75.238281 -76.996094 L 41.199219 -41.40625 L 36.636719 -36.457031 Z M 12.570312 0 L 12.570312 -76.996094 L 20.632812 -76.996094 L 20.632812 0 Z M 67.882812 0 L 34.679688 -38.289062 L 40.132812 -44.207031 L 77.519531 0 Z M 67.882812 0" transform="translate(305.668 500.82)"/></g></g></g><g fill="#A6A6A6"><g><g><path d="M 12.570312 0 L 12.570312 -76.996094 L 45.785156 -76.996094 C 54.328125 -76.996094 60.96875 -75.273438 65.707031 -71.820312 C 70.445312 -68.371094 72.816406 -63.503906 72.816406 -57.214844 C 72.816406 -53.046875 71.839844 -49.527344 69.890625 -46.664062 C 67.941406 -43.800781 65.3125 -41.628906 61.996094 -40.152344 C 58.683594 -38.675781 55.019531 -37.9375 51 -37.9375 L 52.933594 -40.613281 C 57.832031 -40.613281 62.070312 -39.851562 65.640625 -38.328125 C 69.210938 -36.804688 71.972656 -34.554688 73.933594 -31.578125 C 75.890625 -28.605469 76.871094 -24.933594 76.871094 -20.566406 C 76.871094 -14.027344 74.464844 -8.96875 69.652344 -5.378906 C 64.839844 -1.792969 57.617188 0 47.984375 0 Z M 20.632812 -6.703125 L 47.800781 -6.703125 C 54.601562 -6.703125 59.792969 -7.859375 63.375 -10.175781 C 66.957031 -12.488281 68.75 -16.160156 68.75 -21.1875 C 68.75 -26.214844 66.957031 -29.890625 63.375 -32.210938 C 59.792969 -34.53125 54.601562 -35.691406 47.800781 -35.691406 L 19.832031 -35.691406 L 19.832031 -42.394531 L 45.226562 -42.394531 C 51.394531 -42.394531 56.183594 -43.558594 59.589844 -45.886719 C 62.992188 -48.21875 64.695312 -51.703125 64.695312 -56.34375 C 64.695312 -60.984375 62.992188 -64.46875 59.589844 -66.796875 C 56.183594 -69.128906 51.394531 -70.292969 45.226562 -70.292969 L 20.632812 -70.292969 Z M 20.632812 -6.703125" transform="translate(0 632.57)"/></g></g></g><g fill="#A6A6A6"><g><g><path d="M 12.570312 0 L 12.570312 -76.996094 L 20.632812 -76.996094 L 20.632812 -7.074219 L 63.753906 -7.074219 L 63.753906 0 Z M 12.570312 0" transform="translate(82.934 632.57)"/></g></g></g><g fill="#A6A6A6"><g><g><path d="M 0.242188 0 L 35.429688 -76.996094 L 43.425781 -76.996094 L 78.675781 0 L 70.097656 0 L 37.726562 -72.308594 L 41.066406 -72.308594 L 8.691406 0 Z M 14.070312 -20.53125 L 16.476562 -27.167969 L 61.269531 -27.167969 L 63.742188 -20.53125 Z M 14.070312 -20.53125" transform="translate(147.72 632.57)"/></g></g></g><g fill="#A6A6A6"><g><g><path d="M 45.976562 0.703125 C 40.207031 0.703125 34.867188 -0.265625 29.960938 -2.210938 C 25.054688 -4.152344 20.789062 -6.894531 17.171875 -10.4375 C 13.554688 -13.976562 10.734375 -18.125 8.710938 -22.878906 C 6.691406 -27.636719 5.679688 -32.839844 5.679688 -38.5 C 5.679688 -44.15625 6.691406 -49.359375 8.710938 -54.117188 C 10.734375 -58.871094 13.5625 -63.019531 17.203125 -66.558594 C 20.84375 -70.101562 25.117188 -72.84375 30.023438 -74.785156 C 34.929688 -76.730469 40.269531 -77.699219 46.039062 -77.699219 C 51.679688 -77.699219 56.941406 -76.757812 61.820312 -74.875 C 66.699219 -72.992188 70.851562 -70.171875 74.277344 -66.414062 L 69.09375 -61.261719 C 65.945312 -64.46875 62.460938 -66.796875 58.632812 -68.253906 C 54.804688 -69.710938 50.710938 -70.4375 46.351562 -70.4375 C 41.695312 -70.4375 37.386719 -69.636719 33.417969 -68.035156 C 29.457031 -66.4375 26.003906 -64.199219 23.066406 -61.320312 C 20.132812 -58.4375 17.851562 -55.0625 16.230469 -51.183594 C 14.609375 -47.308594 13.800781 -43.082031 13.800781 -38.5 C 13.800781 -33.914062 14.609375 -29.683594 16.230469 -25.808594 C 17.851562 -21.933594 20.132812 -18.558594 23.066406 -15.675781 C 26.003906 -12.796875 29.457031 -10.558594 33.417969 -8.957031 C 37.386719 -7.359375 41.695312 -6.558594 46.351562 -6.558594 C 50.710938 -6.558594 54.804688 -7.292969 58.632812 -8.765625 C 62.460938 -10.238281 65.945312 -12.597656 69.09375 -15.847656 L 74.277344 -10.691406 C 70.851562 -6.933594 66.699219 -4.097656 61.820312 -2.175781 C 56.941406 -0.253906 51.660156 0.703125 45.976562 0.703125 Z M 45.976562 0.703125" transform="translate(226.584 632.57)"/></g></g></g><g fill="#A6A6A6"><g><g><path d="M 19.628906 -19.085938 L 19.257812 -29.035156 L 65.851562 -76.996094 L 75.238281 -76.996094 L 41.199219 -41.40625 L 36.636719 -36.457031 Z M 12.570312 0 L 12.570312 -76.996094 L 20.632812 -76.996094 L 20.632812 0 Z M 67.882812 0 L 34.679688 -38.289062 L 40.132812 -44.207031 L 77.519531 0 Z M 67.882812 0" transform="translate(305.668 632.57)"/></g></g></g><g fill="#A6A6A6"><g><g><path d="M 12.570312 0 L 12.570312 -76.996094 L 45.785156 -76.996094 C 54.328125 -76.996094 60.96875 -75.273438 65.707031 -71.820312 C 70.445312 -68.371094 72.816406 -63.503906 72.816406 -57.214844 C 72.816406 -53.046875 71.839844 -49.527344 69.890625 -46.664062 C 67.941406 -43.800781 65.3125 -41.628906 61.996094 -40.152344 C 58.683594 -38.675781 55.019531 -37.9375 51 -37.9375 L 52.933594 -40.613281 C 57.832031 -40.613281 62.070312 -39.851562 65.640625 -38.328125 C 69.210938 -36.804688 71.972656 -34.554688 73.933594 -31.578125 C 75.890625 -28.605469 76.871094 -24.933594 76.871094 -20.566406 C 76.871094 -14.027344 74.464844 -8.96875 69.652344 -5.378906 C 64.839844 -1.792969 57.617188 0 47.984375 0 Z M 20.632812 -6.703125 L 47.800781 -6.703125 C 54.601562 -6.703125 59.792969 -7.859375 63.375 -10.175781 C 66.957031 -12.488281 68.75 -16.160156 68.75 -21.1875 C 68.75 -26.214844 66.957031 -29.890625 63.375 -32.210938 C 59.792969 -34.53125 54.601562 -35.691406 47.800781 -35.691406 L 19.832031 -35.691406 L 19.832031 -42.394531 L 45.226562 -42.394531 C 51.394531 -42.394531 56.183594 -43.558594 59.589844 -45.886719 C 62.992188 -48.21875 64.695312 -51.703125 64.695312 -56.34375 C 64.695312 -60.984375 62.992188 -64.46875 59.589844 -66.796875 C 56.183594 -69.128906 51.394531 -70.292969 45.226562 -70.292969 L 20.632812 -70.292969 Z M 20.632812 -6.703125" transform="translate(0 764.32)"/></g></g></g><g fill="#A6A6A6"><g><g><path d="M 12.570312 0 L 12.570312 -76.996094 L 20.632812 -76.996094 L 20.632812 -7.074219 L 63.753906 -7.074219 L 63.753906 0 Z M 12.570312 0" transform="translate(82.934 764.32)"/></g></g></g><g fill="#A6A6A6"><g><g><path d="M 0.242188 0 L 35.429688 -76.996094 L 43.425781 -76.996094 L 78.675781 0 L 70.097656 0 L 37.726562 -72.308594 L 41.066406 -72.308594 L 8.691406 0 Z M 14.070312 -20.53125 L 16.476562 -27.167969 L 61.269531 -27.167969 L 63.742188 -20.53125 Z M 14.070312 -20.53125" transform="translate(147.72 764.32)"/></g></g></g><g fill="#A6A6A6"><g><g><path d="M 45.976562 0.703125 C 40.207031 0.703125 34.867188 -0.265625 29.960938 -2.210938 C 25.054688 -4.152344 20.789062 -6.894531 17.171875 -10.4375 C 13.554688 -13.976562 10.734375 -18.125 8.710938 -22.878906 C 6.691406 -27.636719 5.679688 -32.839844 5.679688 -38.5 C 5.679688 -44.15625 6.691406 -49.359375 8.710938 -54.117188 C 10.734375 -58.871094 13.5625 -63.019531 17.203125 -66.558594 C 20.84375 -70.101562 25.117188 -72.84375 30.023438 -74.785156 C 34.929688 -76.730469 40.269531 -77.699219 46.039062 -77.699219 C 51.679688 -77.699219 56.941406 -76.757812 61.820312 -74.875 C 66.699219 -72.992188 70.851562 -70.171875 74.277344 -66.414062 L 69.09375 -61.261719 C 65.945312 -64.46875 62.460938 -66.796875 58.632812 -68.253906 C 54.804688 -69.710938 50.710938 -70.4375 46.351562 -70.4375 C 41.695312 -70.4375 37.386719 -69.636719 33.417969 -68.035156 C 29.457031 -66.4375 26.003906 -64.199219 23.066406 -61.320312 C 20.132812 -58.4375 17.851562 -55.0625 16.230469 -51.183594 C 14.609375 -47.308594 13.800781 -43.082031 13.800781 -38.5 C 13.800781 -33.914062 14.609375 -29.683594 16.230469 -25.808594 C 17.851562 -21.933594 20.132812 -18.558594 23.066406 -15.675781 C 26.003906 -12.796875 29.457031 -10.558594 33.417969 -8.957031 C 37.386719 -7.359375 41.695312 -6.558594 46.351562 -6.558594 C 50.710938 -6.558594 54.804688 -7.292969 58.632812 -8.765625 C 62.460938 -10.238281 65.945312 -12.597656 69.09375 -15.847656 L 74.277344 -10.691406 C 70.851562 -6.933594 66.699219 -4.097656 61.820312 -2.175781 C 56.941406 -0.253906 51.660156 0.703125 45.976562 0.703125 Z M 45.976562 0.703125" transform="translate(226.584 764.32)"/></g></g></g><g fill="#A6A6A6"><g><g><path d="M 19.628906 -19.085938 L 19.257812 -29.035156 L 65.851562 -76.996094 L 75.238281 -76.996094 L 41.199219 -41.40625 L 36.636719 -36.457031 Z M 12.570312 0 L 12.570312 -76.996094 L 20.632812 -76.996094 L 20.632812 0 Z M 67.882812 0 L 34.679688 -38.289062 L 40.132812 -44.207031 L 77.519531 0 Z M 67.882812 0" transform="translate(305.668 764.32)"/></g></g></g><g fill="#FFF"><g><g><path d="M 25.9375 -41.796875 L 55.578125 -41.796875 L 55.578125 -25.65625 L 25.9375 -25.65625 Z M 27.453125 -16.90625 L 60.703125 -16.90625 L 60.703125 0 L 5.421875 0 L 5.421875 -66.5 L 59.46875 -66.5 L 59.46875 -49.59375 L 27.453125 -49.59375 Z M 27.453125 -16.90625" transform="translate(386.566 100.32)"/></g></g></g><g fill="#FFF"><g><g><path d="M 5.421875 0 L 5.421875 -66.5 L 38.1875 -66.5 C 45.601562 -66.5 52.128906 -65.148438 57.765625 -62.453125 C 63.398438 -59.765625 67.800781 -55.953125 70.96875 -51.015625 C 74.132812 -46.078125 75.71875 -40.1875 75.71875 -33.34375 C 75.71875 -26.4375 74.132812 -20.5 70.96875 -15.53125 C 67.800781 -10.5625 63.398438 -6.726562 57.765625 -4.03125 C 52.128906 -1.34375 45.601562 0 38.1875 0 Z M 27.828125 -17.484375 L 37.234375 -17.484375 C 40.398438 -17.484375 43.171875 -18.082031 45.546875 -19.28125 C 47.921875 -20.488281 49.773438 -22.28125 51.109375 -24.65625 C 52.441406 -27.03125 53.109375 -29.925781 53.109375 -33.34375 C 53.109375 -36.695312 52.441406 -39.546875 51.109375 -41.890625 C 49.773438 -44.234375 47.921875 -46.003906 45.546875 -47.203125 C 43.171875 -48.410156 40.398438 -49.015625 37.234375 -49.015625 L 27.828125 -49.015625 Z M 27.828125 -17.484375" transform="translate(450.496 100.32)"/></g></g></g><g fill="#FFF"><g><g><path d="M 37.234375 1.515625 C 27.035156 1.515625 19.085938 -1.238281 13.390625 -6.75 C 7.691406 -12.257812 4.84375 -19.984375 4.84375 -29.921875 L 4.84375 -66.5 L 27.265625 -66.5 L 27.265625 -30.59375 C 27.265625 -25.519531 28.179688 -21.921875 30.015625 -19.796875 C 31.859375 -17.679688 34.332031 -16.625 37.4375 -16.625 C 40.601562 -16.625 43.085938 -17.679688 44.890625 -19.796875 C 46.691406 -21.921875 47.59375 -25.519531 47.59375 -30.59375 L 47.59375 -66.5 L 69.640625 -66.5 L 69.640625 -29.921875 C 69.640625 -19.984375 66.785156 -12.257812 61.078125 -6.75 C 55.378906 -1.238281 47.429688 1.515625 37.234375 1.515625 Z M 37.234375 1.515625" transform="translate(528.96 100.32)"/></g></g></g><g fill="#FFF"><g><g><path d="M 39.8125 1.515625 C 34.488281 1.515625 29.5625 0.675781 25.03125 -1 C 20.5 -2.675781 16.570312 -5.066406 13.25 -8.171875 C 9.925781 -11.273438 7.34375 -14.945312 5.5 -19.1875 C 3.664062 -23.4375 2.75 -28.125 2.75 -33.25 C 2.75 -38.375 3.664062 -43.054688 5.5 -47.296875 C 7.34375 -51.546875 9.925781 -55.222656 13.25 -58.328125 C 16.570312 -61.429688 20.5 -63.820312 25.03125 -65.5 C 29.5625 -67.175781 34.488281 -68.015625 39.8125 -68.015625 C 46.332031 -68.015625 52.109375 -66.875 57.140625 -64.59375 C 62.171875 -62.320312 66.335938 -59.03125 69.640625 -54.71875 L 55.484375 -42.078125 C 53.515625 -44.554688 51.34375 -46.472656 48.96875 -47.828125 C 46.59375 -49.191406 43.914062 -49.875 40.9375 -49.875 C 38.601562 -49.875 36.484375 -49.492188 34.578125 -48.734375 C 32.679688 -47.972656 31.050781 -46.863281 29.6875 -45.40625 C 28.320312 -43.945312 27.257812 -42.1875 26.5 -40.125 C 25.738281 -38.070312 25.359375 -35.78125 25.359375 -33.25 C 25.359375 -30.71875 25.738281 -28.421875 26.5 -26.359375 C 27.257812 -24.304688 28.320312 -22.550781 29.6875 -21.09375 C 31.050781 -19.632812 32.679688 -18.523438 34.578125 -17.765625 C 36.484375 -17.003906 38.601562 -16.625 40.9375 -16.625 C 43.914062 -16.625 46.59375 -17.300781 48.96875 -18.65625 C 51.34375 -20.019531 53.515625 -21.941406 55.484375 -24.421875 L 69.640625 -11.78125 C 66.335938 -7.539062 62.171875 -4.265625 57.140625 -1.953125 C 52.109375 0.359375 46.332031 1.515625 39.8125 1.515625 Z M 39.8125 1.515625" transform="translate(603.434 100.32)"/></g></g></g><g fill="#FFF"><g><g><path d="M -1.8125 0 L 27.265625 -66.5 L 49.3125 -66.5 L 78.375 0 L 55.1875 0 L 33.71875 -55.859375 L 42.46875 -55.859375 L 21 0 Z M 15.484375 -11.59375 L 21.1875 -27.734375 L 51.78125 -27.734375 L 57.46875 -11.59375 Z M 15.484375 -11.59375" transform="translate(674.108 100.32)"/></g></g></g><g fill="#FFF"><g><g><path d="M 19.859375 0 L 19.859375 -49.109375 L 0.375 -49.109375 L 0.375 -66.5 L 61.75 -66.5 L 61.75 -49.109375 L 42.28125 -49.109375 L 42.28125 0 Z M 19.859375 0" transform="translate(750.672 100.32)"/></g></g></g><g fill="#FFF"><g><g><path d="M 5.421875 0 L 5.421875 -66.5 L 27.828125 -66.5 L 27.828125 0 Z M 5.421875 0" transform="translate(812.796 100.32)"/></g></g></g><g fill="#FFF"><g><g><path d="M 40.375 1.515625 C 34.925781 1.515625 29.90625 0.660156 25.3125 -1.046875 C 20.726562 -2.753906 16.753906 -5.175781 13.390625 -8.3125 C 10.035156 -11.445312 7.421875 -15.132812 5.546875 -19.375 C 3.679688 -23.625 2.75 -28.25 2.75 -33.25 C 2.75 -38.3125 3.679688 -42.945312 5.546875 -47.15625 C 7.421875 -51.375 10.035156 -55.050781 13.390625 -58.1875 C 16.753906 -61.320312 20.726562 -63.742188 25.3125 -65.453125 C 29.90625 -67.160156 34.894531 -68.015625 40.28125 -68.015625 C 45.726562 -68.015625 50.726562 -67.160156 55.28125 -65.453125 C 59.84375 -63.742188 63.800781 -61.320312 67.15625 -58.1875 C 70.519531 -55.050781 73.132812 -51.375 75 -47.15625 C 76.875 -42.945312 77.8125 -38.3125 77.8125 -33.25 C 77.8125 -28.25 76.875 -23.625 75 -19.375 C 73.132812 -15.132812 70.519531 -11.445312 67.15625 -8.3125 C 63.800781 -5.175781 59.84375 -2.753906 55.28125 -1.046875 C 50.726562 0.660156 45.757812 1.515625 40.375 1.515625 Z M 40.28125 -16.625 C 42.375 -16.625 44.320312 -17.003906 46.125 -17.765625 C 47.925781 -18.523438 49.507812 -19.617188 50.875 -21.046875 C 52.238281 -22.472656 53.296875 -24.210938 54.046875 -26.265625 C 54.804688 -28.328125 55.1875 -30.65625 55.1875 -33.25 C 55.1875 -35.84375 54.804688 -38.164062 54.046875 -40.21875 C 53.296875 -42.28125 52.238281 -44.023438 50.875 -45.453125 C 49.507812 -46.878906 47.925781 -47.972656 46.125 -48.734375 C 44.320312 -49.492188 42.375 -49.875 40.28125 -49.875 C 38.1875 -49.875 36.238281 -49.492188 34.4375 -48.734375 C 32.632812 -47.972656 31.050781 -46.878906 29.6875 -45.453125 C 28.320312 -44.023438 27.257812 -42.28125 26.5 -40.21875 C 25.738281 -38.164062 25.359375 -35.84375 25.359375 -33.25 C 25.359375 -30.65625 25.738281 -28.328125 26.5 -26.265625 C 27.257812 -24.210938 28.320312 -22.472656 29.6875 -21.046875 C 31.050781 -19.617188 32.632812 -18.523438 34.4375 -17.765625 C 36.238281 -17.003906 38.1875 -16.625 40.28125 -16.625 Z M 40.28125 -16.625" transform="translate(846.044 100.32)"/></g></g></g><g fill="#FFF"><g><g><path d="M 5.421875 0 L 5.421875 -66.5 L 23.84375 -66.5 L 57.671875 -26.03125 L 49.109375 -26.03125 L 49.109375 -66.5 L 70.96875 -66.5 L 70.96875 0 L 52.53125 0 L 18.71875 -40.46875 L 27.265625 -40.46875 L 27.265625 0 Z M 5.421875 0" transform="translate(926.597 100.32)"/></g></g></g><g fill="#FFF"><g><g><path d="M 18.25 0 L 0.78125 -54.59375 L 19.734375 -54.59375 L 33.859375 -8.5 L 24.34375 -8.5 L 39.3125 -54.59375 L 56.234375 -54.59375 L 70.203125 -8.5 L 61.078125 -8.5 L 75.8125 -54.59375 L 93.28125 -54.59375 L 75.8125 0 L 56.078125 0 L 44.6875 -37.75 L 50 -37.75 L 37.984375 0 Z M 18.25 0" transform="translate(419.941 357.82)"/></g></g></g><g fill="#FFF"><g><g><path d="M 21.296875 -34.3125 L 45.625 -34.3125 L 45.625 -21.0625 L 21.296875 -21.0625 Z M 22.546875 -13.890625 L 49.84375 -13.890625 L 49.84375 0 L 4.453125 0 L 4.453125 -54.59375 L 48.828125 -54.59375 L 48.828125 -40.71875 L 22.546875 -40.71875 Z M 22.546875 -13.890625" transform="translate(537.41 357.82)"/></g></g></g><g fill="#FFF"><g><g><path d="M 4.453125 0 L 4.453125 -54.59375 L 22.859375 -54.59375 L 22.859375 -14.28125 L 47.5 -14.28125 L 47.5 0 Z M 4.453125 0" transform="translate(613.304 357.82)"/></g></g></g><g fill="#FFF"><g><g><path d="M 4.453125 0 L 4.453125 -54.59375 L 22.859375 -54.59375 L 22.859375 -14.28125 L 47.5 -14.28125 L 47.5 0 Z M 4.453125 0" transform="translate(684.83 357.82)"/></g></g></g><g fill="#FFF"><g><g><path d="M 4.453125 0 L 4.453125 -54.59375 L 19.578125 -54.59375 L 47.34375 -21.375 L 40.328125 -21.375 L 40.328125 -54.59375 L 58.265625 -54.59375 L 58.265625 0 L 43.140625 0 L 15.359375 -33.234375 L 22.390625 -33.234375 L 22.390625 0 Z M 4.453125 0" transform="translate(756.356 357.82)"/></g></g></g><g fill="#FFF"><g><g><path d="M 21.296875 -34.3125 L 45.625 -34.3125 L 45.625 -21.0625 L 21.296875 -21.0625 Z M 22.546875 -13.890625 L 49.84375 -13.890625 L 49.84375 0 L 4.453125 0 L 4.453125 -54.59375 L 48.828125 -54.59375 L 48.828125 -40.71875 L 22.546875 -40.71875 Z M 22.546875 -13.890625" transform="translate(842.468 357.82)"/></g></g></g><g fill="#FFF"><g><g><path d="M 24.796875 1.25 C 20.222656 1.25 15.800781 0.726562 11.53125 -0.3125 C 7.269531 -1.351562 3.765625 -2.707031 1.015625 -4.375 L 6.9375 -17.78125 C 9.539062 -16.269531 12.441406 -15.0625 15.640625 -14.15625 C 18.835938 -13.25 21.941406 -12.796875 24.953125 -12.796875 C 26.722656 -12.796875 28.113281 -12.910156 29.125 -13.140625 C 30.144531 -13.378906 30.890625 -13.71875 31.359375 -14.15625 C 31.828125 -14.59375 32.0625 -15.125 32.0625 -15.75 C 32.0625 -16.738281 31.515625 -17.519531 30.421875 -18.09375 C 29.328125 -18.664062 27.882812 -19.144531 26.09375 -19.53125 C 24.300781 -19.925781 22.335938 -20.34375 20.203125 -20.78125 C 18.066406 -21.226562 15.921875 -21.816406 13.765625 -22.546875 C 11.609375 -23.273438 9.628906 -24.234375 7.828125 -25.421875 C 6.035156 -26.617188 4.59375 -28.191406 3.5 -30.140625 C 2.414062 -32.097656 1.875 -34.53125 1.875 -37.4375 C 1.875 -40.820312 2.820312 -43.90625 4.71875 -46.6875 C 6.613281 -49.46875 9.445312 -51.6875 13.21875 -53.34375 C 16.988281 -55.007812 21.679688 -55.84375 27.296875 -55.84375 C 30.992188 -55.84375 34.632812 -55.453125 38.21875 -54.671875 C 41.8125 -53.898438 45.035156 -52.707031 47.890625 -51.09375 L 42.359375 -37.75 C 39.648438 -39.101562 37.035156 -40.117188 34.515625 -40.796875 C 31.992188 -41.472656 29.535156 -41.8125 27.140625 -41.8125 C 25.367188 -41.8125 23.960938 -41.65625 22.921875 -41.34375 C 21.890625 -41.03125 21.148438 -40.613281 20.703125 -40.09375 C 20.265625 -39.570312 20.046875 -39 20.046875 -38.375 C 20.046875 -37.4375 20.59375 -36.691406 21.6875 -36.140625 C 22.78125 -35.597656 24.222656 -35.144531 26.015625 -34.78125 C 27.804688 -34.414062 29.78125 -34.023438 31.9375 -33.609375 C 34.09375 -33.203125 36.238281 -32.632812 38.375 -31.90625 C 40.507812 -31.175781 42.472656 -30.210938 44.265625 -29.015625 C 46.054688 -27.816406 47.5 -26.253906 48.59375 -24.328125 C 49.6875 -22.410156 50.234375 -20.019531 50.234375 -17.15625 C 50.234375 -13.832031 49.28125 -10.78125 47.375 -8 C 45.476562 -5.21875 42.660156 -2.976562 38.921875 -1.28125 C 35.179688 0.40625 30.472656 1.25 24.796875 1.25 Z M 24.796875 1.25" transform="translate(918.362 357.82)"/></g></g></g><g fill="#FFF"><g><g><path d="M 24.796875 1.25 C 20.222656 1.25 15.800781 0.726562 11.53125 -0.3125 C 7.269531 -1.351562 3.765625 -2.707031 1.015625 -4.375 L 6.9375 -17.78125 C 9.539062 -16.269531 12.441406 -15.0625 15.640625 -14.15625 C 18.835938 -13.25 21.941406 -12.796875 24.953125 -12.796875 C 26.722656 -12.796875 28.113281 -12.910156 29.125 -13.140625 C 30.144531 -13.378906 30.890625 -13.71875 31.359375 -14.15625 C 31.828125 -14.59375 32.0625 -15.125 32.0625 -15.75 C 32.0625 -16.738281 31.515625 -17.519531 30.421875 -18.09375 C 29.328125 -18.664062 27.882812 -19.144531 26.09375 -19.53125 C 24.300781 -19.925781 22.335938 -20.34375 20.203125 -20.78125 C 18.066406 -21.226562 15.921875 -21.816406 13.765625 -22.546875 C 11.609375 -23.273438 9.628906 -24.234375 7.828125 -25.421875 C 6.035156 -26.617188 4.59375 -28.191406 3.5 -30.140625 C 2.414062 -32.097656 1.875 -34.53125 1.875 -37.4375 C 1.875 -40.820312 2.820312 -43.90625 4.71875 -46.6875 C 6.613281 -49.46875 9.445312 -51.6875 13.21875 -53.34375 C 16.988281 -55.007812 21.679688 -55.84375 27.296875 -55.84375 C 30.992188 -55.84375 34.632812 -55.453125 38.21875 -54.671875 C 41.8125 -53.898438 45.035156 -52.707031 47.890625 -51.09375 L 42.359375 -37.75 C 39.648438 -39.101562 37.035156 -40.117188 34.515625 -40.796875 C 31.992188 -41.472656 29.535156 -41.8125 27.140625 -41.8125 C 25.367188 -41.8125 23.960938 -41.65625 22.921875 -41.34375 C 21.890625 -41.03125 21.148438 -40.613281 20.703125 -40.09375 C 20.265625 -39.570312 20.046875 -39 20.046875 -38.375 C 20.046875 -37.4375 20.59375 -36.691406 21.6875 -36.140625 C 22.78125 -35.597656 24.222656 -35.144531 26.015625 -34.78125 C 27.804688 -34.414062 29.78125 -34.023438 31.9375 -33.609375 C 34.09375 -33.203125 36.238281 -32.632812 38.375 -31.90625 C 40.507812 -31.175781 42.472656 -30.210938 44.265625 -29.015625 C 46.054688 -27.816406 47.5 -26.253906 48.59375 -24.328125 C 49.6875 -22.410156 50.234375 -20.019531 50.234375 -17.15625 C 50.234375 -13.832031 49.28125 -10.78125 47.375 -8 C 45.476562 -5.21875 42.660156 -2.976562 38.921875 -1.28125 C 35.179688 0.40625 30.472656 1.25 24.796875 1.25 Z M 24.796875 1.25" transform="translate(669.152 466.57)"/></g></g></g><g fill="#FFF"><g><g><path d="M 24.375 0 L -1.671875 -61.59375 L 20.6875 -61.59375 L 41.890625 -9.59375 L 28.59375 -9.59375 L 50.421875 -61.59375 L 70.84375 -61.59375 L 44.796875 0 Z M 24.375 0" transform="translate(384.258 229.445)"/></g></g></g><g fill="#FFF"><g><g><path d="M 37.40625 1.40625 C 32.351562 1.40625 27.703125 0.613281 23.453125 -0.96875 C 19.203125 -2.550781 15.519531 -4.796875 12.40625 -7.703125 C 9.300781 -10.609375 6.878906 -14.023438 5.140625 -17.953125 C 3.410156 -21.878906 2.546875 -26.160156 2.546875 -30.796875 C 2.546875 -35.492188 3.410156 -39.789062 5.140625 -43.6875 C 6.878906 -47.59375 9.300781 -50.992188 12.40625 -53.890625 C 15.519531 -56.796875 19.203125 -59.039062 23.453125 -60.625 C 27.703125 -62.21875 32.320312 -63.015625 37.3125 -63.015625 C 42.351562 -63.015625 46.984375 -62.21875 51.203125 -60.625 C 55.429688 -59.039062 59.097656 -56.796875 62.203125 -53.890625 C 65.316406 -50.992188 67.738281 -47.59375 69.46875 -43.6875 C 71.207031 -39.789062 72.078125 -35.492188 72.078125 -30.796875 C 72.078125 -26.160156 71.207031 -21.878906 69.46875 -17.953125 C 67.738281 -14.023438 65.316406 -10.609375 62.203125 -7.703125 C 59.097656 -4.796875 55.429688 -2.550781 51.203125 -0.96875 C 46.984375 0.613281 42.382812 1.40625 37.40625 1.40625 Z M 37.3125 -15.40625 C 39.25 -15.40625 41.050781 -15.753906 42.71875 -16.453125 C 44.394531 -17.160156 45.863281 -18.171875 47.125 -19.484375 C 48.382812 -20.804688 49.363281 -22.421875 50.0625 -24.328125 C 50.769531 -26.234375 51.125 -28.390625 51.125 -30.796875 C 51.125 -33.203125 50.769531 -35.359375 50.0625 -37.265625 C 49.363281 -39.171875 48.382812 -40.785156 47.125 -42.109375 C 45.863281 -43.429688 44.394531 -44.441406 42.71875 -45.140625 C 41.050781 -45.847656 39.25 -46.203125 37.3125 -46.203125 C 35.375 -46.203125 33.566406 -45.847656 31.890625 -45.140625 C 30.222656 -44.441406 28.757812 -43.429688 27.5 -42.109375 C 26.238281 -40.785156 25.253906 -39.171875 24.546875 -37.265625 C 23.847656 -35.359375 23.5 -33.203125 23.5 -30.796875 C 23.5 -28.390625 23.847656 -26.234375 24.546875 -24.328125 C 25.253906 -22.421875 26.238281 -20.804688 27.5 -19.484375 C 28.757812 -18.171875 30.222656 -17.160156 31.890625 -16.453125 C 33.566406 -15.753906 35.375 -15.40625 37.3125 -15.40625 Z M 37.3125 -15.40625" transform="translate(506.215 229.445)"/></g></g></g><g fill="#FFF"><g><g><path d="M 5.015625 0 L 5.015625 -61.59375 L 25.78125 -61.59375 L 25.78125 0 Z M 5.015625 0" transform="translate(633.621 229.445)"/></g></g></g><g fill="#FFF"><g><g><path d="M 36.875 1.40625 C 31.945312 1.40625 27.382812 0.628906 23.1875 -0.921875 C 18.988281 -2.472656 15.347656 -4.6875 12.265625 -7.5625 C 9.191406 -10.4375 6.800781 -13.835938 5.09375 -17.765625 C 3.394531 -21.703125 2.546875 -26.046875 2.546875 -30.796875 C 2.546875 -35.546875 3.394531 -39.882812 5.09375 -43.8125 C 6.800781 -47.75 9.191406 -51.15625 12.265625 -54.03125 C 15.347656 -56.90625 18.988281 -59.117188 23.1875 -60.671875 C 27.382812 -62.234375 31.945312 -63.015625 36.875 -63.015625 C 42.914062 -63.015625 48.265625 -61.957031 52.921875 -59.84375 C 57.585938 -57.726562 61.445312 -54.675781 64.5 -50.6875 L 51.390625 -38.984375 C 49.566406 -41.273438 47.554688 -43.050781 45.359375 -44.3125 C 43.160156 -45.570312 40.679688 -46.203125 37.921875 -46.203125 C 35.753906 -46.203125 33.789062 -45.847656 32.03125 -45.140625 C 30.269531 -44.441406 28.757812 -43.414062 27.5 -42.0625 C 26.238281 -40.71875 25.253906 -39.085938 24.546875 -37.171875 C 23.847656 -35.265625 23.5 -33.140625 23.5 -30.796875 C 23.5 -28.453125 23.847656 -26.328125 24.546875 -24.421875 C 25.253906 -22.515625 26.238281 -20.882812 27.5 -19.53125 C 28.757812 -18.1875 30.269531 -17.160156 32.03125 -16.453125 C 33.789062 -15.753906 35.753906 -15.40625 37.921875 -15.40625 C 40.679688 -15.40625 43.160156 -16.035156 45.359375 -17.296875 C 47.554688 -18.554688 49.566406 -20.328125 51.390625 -22.609375 L 64.5 -10.90625 C 61.445312 -6.976562 57.585938 -3.941406 52.921875 -1.796875 C 48.265625 0.335938 42.914062 1.40625 36.875 1.40625 Z M 36.875 1.40625" transform="translate(717.21 229.445)"/></g></g></g><g fill="#FFF"><g><g><path d="M 24.03125 -38.71875 L 51.484375 -38.71875 L 51.484375 -23.765625 L 24.03125 -23.765625 Z M 25.4375 -15.65625 L 56.234375 -15.65625 L 56.234375 0 L 5.015625 0 L 5.015625 -61.59375 L 55.09375 -61.59375 L 55.09375 -45.9375 L 25.4375 -45.9375 Z M 25.4375 -15.65625" transform="translate(835.465 229.445)"/></g></g></g><g fill="#FFF"><g><g><path d="M 27.984375 1.40625 C 22.816406 1.40625 17.828125 0.820312 13.015625 -0.34375 C 8.210938 -1.519531 4.253906 -3.046875 1.140625 -4.921875 L 7.828125 -20.0625 C 10.765625 -18.363281 14.035156 -17 17.640625 -15.96875 C 21.253906 -14.945312 24.757812 -14.4375 28.15625 -14.4375 C 30.15625 -14.4375 31.722656 -14.566406 32.859375 -14.828125 C 34.003906 -15.085938 34.84375 -15.46875 35.375 -15.96875 C 35.90625 -16.46875 36.171875 -17.070312 36.171875 -17.78125 C 36.171875 -18.894531 35.550781 -19.773438 34.3125 -20.421875 C 33.082031 -21.066406 31.457031 -21.609375 29.4375 -22.046875 C 27.414062 -22.484375 25.203125 -22.953125 22.796875 -23.453125 C 20.390625 -23.953125 17.96875 -24.609375 15.53125 -25.421875 C 13.09375 -26.242188 10.863281 -27.332031 8.84375 -28.6875 C 6.820312 -30.039062 5.191406 -31.816406 3.953125 -34.015625 C 2.722656 -36.210938 2.109375 -38.953125 2.109375 -42.234375 C 2.109375 -46.046875 3.175781 -49.519531 5.3125 -52.65625 C 7.457031 -55.800781 10.65625 -58.3125 14.90625 -60.1875 C 19.164062 -62.070312 24.460938 -63.015625 30.796875 -63.015625 C 34.960938 -63.015625 39.066406 -62.570312 43.109375 -61.6875 C 47.160156 -60.8125 50.800781 -59.460938 54.03125 -57.640625 L 47.78125 -42.59375 C 44.726562 -44.113281 41.78125 -45.253906 38.9375 -46.015625 C 36.09375 -46.785156 33.320312 -47.171875 30.625 -47.171875 C 28.625 -47.171875 27.035156 -46.992188 25.859375 -46.640625 C 24.691406 -46.285156 23.859375 -45.816406 23.359375 -45.234375 C 22.859375 -44.648438 22.609375 -44.003906 22.609375 -43.296875 C 22.609375 -42.242188 23.222656 -41.40625 24.453125 -40.78125 C 25.691406 -40.164062 27.320312 -39.648438 29.34375 -39.234375 C 31.375 -38.828125 33.601562 -38.390625 36.03125 -37.921875 C 38.46875 -37.453125 40.890625 -36.804688 43.296875 -35.984375 C 45.703125 -35.171875 47.914062 -34.085938 49.9375 -32.734375 C 51.957031 -31.390625 53.582031 -29.628906 54.8125 -27.453125 C 56.050781 -25.285156 56.671875 -22.585938 56.671875 -19.359375 C 56.671875 -15.609375 55.597656 -12.160156 53.453125 -9.015625 C 51.316406 -5.878906 48.132812 -3.359375 43.90625 -1.453125 C 39.6875 0.453125 34.378906 1.40625 27.984375 1.40625 Z M 27.984375 1.40625" transform="translate(947.473 229.445)"/></g></g></g><g fill="#FFF"><g><g><path d="M 29.578125 1.484375 C 24.117188 1.484375 18.847656 0.863281 13.765625 -0.375 C 8.679688 -1.613281 4.492188 -3.222656 1.203125 -5.203125 L 8.28125 -21.203125 C 11.375 -19.398438 14.828125 -17.957031 18.640625 -16.875 C 22.453125 -15.789062 26.160156 -15.25 29.765625 -15.25 C 31.867188 -15.25 33.523438 -15.390625 34.734375 -15.671875 C 35.941406 -15.953125 36.820312 -16.351562 37.375 -16.875 C 37.9375 -17.40625 38.21875 -18.039062 38.21875 -18.78125 C 38.21875 -19.957031 37.566406 -20.882812 36.265625 -21.5625 C 34.960938 -22.25 33.242188 -22.828125 31.109375 -23.296875 C 28.972656 -23.765625 26.632812 -24.257812 24.09375 -24.78125 C 21.550781 -25.3125 18.992188 -26.007812 16.421875 -26.875 C 13.847656 -27.738281 11.488281 -28.882812 9.34375 -30.3125 C 7.207031 -31.738281 5.488281 -33.613281 4.1875 -35.9375 C 2.882812 -38.269531 2.234375 -41.171875 2.234375 -44.640625 C 2.234375 -48.671875 3.363281 -52.34375 5.625 -55.65625 C 7.882812 -58.976562 11.257812 -61.628906 15.75 -63.609375 C 20.25 -65.597656 25.847656 -66.59375 32.546875 -66.59375 C 36.953125 -66.59375 41.289062 -66.125 45.5625 -65.1875 C 49.84375 -64.257812 53.691406 -62.835938 57.109375 -60.921875 L 50.5 -45.015625 C 47.269531 -46.628906 44.148438 -47.835938 41.140625 -48.640625 C 38.140625 -49.441406 35.210938 -49.84375 32.359375 -49.84375 C 30.253906 -49.84375 28.582031 -49.65625 27.34375 -49.28125 C 26.101562 -48.914062 25.21875 -48.421875 24.6875 -47.796875 C 24.164062 -47.179688 23.90625 -46.5 23.90625 -45.75 C 23.90625 -44.632812 24.554688 -43.75 25.859375 -43.09375 C 27.160156 -42.445312 28.878906 -41.90625 31.015625 -41.46875 C 33.148438 -41.039062 35.503906 -40.578125 38.078125 -40.078125 C 40.648438 -39.585938 43.207031 -38.90625 45.75 -38.03125 C 48.289062 -37.164062 50.628906 -36.019531 52.765625 -34.59375 C 54.910156 -33.164062 56.632812 -31.304688 57.9375 -29.015625 C 59.238281 -26.722656 59.890625 -23.867188 59.890625 -20.453125 C 59.890625 -16.492188 58.757812 -12.851562 56.5 -9.53125 C 54.238281 -6.21875 50.875 -3.550781 46.40625 -1.53125 C 41.945312 0.476562 36.335938 1.484375 29.578125 1.484375 Z M 29.578125 1.484375" transform="translate(426.973 494.82)"/></g></g></g><g fill="#FFF"><g><g><path d="M 36.453125 1.484375 C 26.472656 1.484375 18.691406 -1.207031 13.109375 -6.59375 C 7.535156 -11.988281 4.75 -19.554688 4.75 -29.296875 L 4.75 -65.09375 L 26.6875 -65.09375 L 26.6875 -29.953125 C 26.6875 -24.984375 27.582031 -21.460938 29.375 -19.390625 C 31.175781 -17.316406 33.597656 -16.28125 36.640625 -16.28125 C 39.742188 -16.28125 42.175781 -17.316406 43.9375 -19.390625 C 45.707031 -21.460938 46.59375 -24.984375 46.59375 -29.953125 L 46.59375 -65.09375 L 68.171875 -65.09375 L 68.171875 -29.296875 C 68.171875 -19.554688 65.378906 -11.988281 59.796875 -6.59375 C 54.210938 -1.207031 46.429688 1.484375 36.453125 1.484375 Z M 36.453125 1.484375" transform="translate(515.974 494.82)"/></g></g></g><g fill="#FFF"><g><g><path d="M 38.96875 1.484375 C 33.757812 1.484375 28.9375 0.664062 24.5 -0.96875 C 20.070312 -2.613281 16.226562 -4.957031 12.96875 -8 C 9.71875 -11.039062 7.191406 -14.632812 5.390625 -18.78125 C 3.597656 -22.9375 2.703125 -27.523438 2.703125 -32.546875 C 2.703125 -37.566406 3.597656 -42.15625 5.390625 -46.3125 C 7.191406 -50.46875 9.71875 -54.0625 12.96875 -57.09375 C 16.226562 -60.132812 20.070312 -62.476562 24.5 -64.125 C 28.9375 -65.769531 33.757812 -66.59375 38.96875 -66.59375 C 45.351562 -66.59375 51.007812 -65.472656 55.9375 -63.234375 C 60.863281 -61.003906 64.941406 -57.78125 68.171875 -53.5625 L 54.3125 -41.203125 C 52.382812 -43.617188 50.257812 -45.492188 47.9375 -46.828125 C 45.613281 -48.160156 42.992188 -48.828125 40.078125 -48.828125 C 37.785156 -48.828125 35.707031 -48.453125 33.84375 -47.703125 C 31.988281 -46.960938 30.394531 -45.878906 29.0625 -44.453125 C 27.726562 -43.023438 26.6875 -41.300781 25.9375 -39.28125 C 25.195312 -37.269531 24.828125 -35.023438 24.828125 -32.546875 C 24.828125 -30.066406 25.195312 -27.816406 25.9375 -25.796875 C 26.6875 -23.785156 27.726562 -22.066406 29.0625 -20.640625 C 30.394531 -19.210938 31.988281 -18.128906 33.84375 -17.390625 C 35.707031 -16.648438 37.785156 -16.28125 40.078125 -16.28125 C 42.992188 -16.28125 45.613281 -16.945312 47.9375 -18.28125 C 50.257812 -19.613281 52.382812 -21.488281 54.3125 -23.90625 L 68.171875 -11.53125 C 64.941406 -7.375 60.863281 -4.164062 55.9375 -1.90625 C 51.007812 0.351562 45.351562 1.484375 38.96875 1.484375 Z M 38.96875 1.484375" transform="translate(616.786 494.82)"/></g></g></g><g fill="#FFF"><g><g><path d="M 38.96875 1.484375 C 33.757812 1.484375 28.9375 0.664062 24.5 -0.96875 C 20.070312 -2.613281 16.226562 -4.957031 12.96875 -8 C 9.71875 -11.039062 7.191406 -14.632812 5.390625 -18.78125 C 3.597656 -22.9375 2.703125 -27.523438 2.703125 -32.546875 C 2.703125 -37.566406 3.597656 -42.15625 5.390625 -46.3125 C 7.191406 -50.46875 9.71875 -54.0625 12.96875 -57.09375 C 16.226562 -60.132812 20.070312 -62.476562 24.5 -64.125 C 28.9375 -65.769531 33.757812 -66.59375 38.96875 -66.59375 C 45.351562 -66.59375 51.007812 -65.472656 55.9375 -63.234375 C 60.863281 -61.003906 64.941406 -57.78125 68.171875 -53.5625 L 54.3125 -41.203125 C 52.382812 -43.617188 50.257812 -45.492188 47.9375 -46.828125 C 45.613281 -48.160156 42.992188 -48.828125 40.078125 -48.828125 C 37.785156 -48.828125 35.707031 -48.453125 33.84375 -47.703125 C 31.988281 -46.960938 30.394531 -45.878906 29.0625 -44.453125 C 27.726562 -43.023438 26.6875 -41.300781 25.9375 -39.28125 C 25.195312 -37.269531 24.828125 -35.023438 24.828125 -32.546875 C 24.828125 -30.066406 25.195312 -27.816406 25.9375 -25.796875 C 26.6875 -23.785156 27.726562 -22.066406 29.0625 -20.640625 C 30.394531 -19.210938 31.988281 -18.128906 33.84375 -17.390625 C 35.707031 -16.648438 37.785156 -16.28125 40.078125 -16.28125 C 42.992188 -16.28125 45.613281 -16.945312 47.9375 -18.28125 C 50.257812 -19.613281 52.382812 -21.488281 54.3125 -23.90625 L 68.171875 -11.53125 C 64.941406 -7.375 60.863281 -4.164062 55.9375 -1.90625 C 51.007812 0.351562 45.351562 1.484375 38.96875 1.484375 Z M 38.96875 1.484375" transform="translate(713.878 494.82)"/></g></g></g><g fill="#FFF"><g><g><path d="M 25.390625 -40.921875 L 54.40625 -40.921875 L 54.40625 -25.109375 L 25.390625 -25.109375 Z M 26.875 -16.546875 L 59.421875 -16.546875 L 59.421875 0 L 5.296875 0 L 5.296875 -65.09375 L 58.21875 -65.09375 L 58.21875 -48.546875 L 26.875 -48.546875 Z M 26.875 -16.546875" transform="translate(810.97 494.82)"/></g></g></g><g fill="#FFF"><g><g><path d="M 29.578125 1.484375 C 24.117188 1.484375 18.847656 0.863281 13.765625 -0.375 C 8.679688 -1.613281 4.492188 -3.222656 1.203125 -5.203125 L 8.28125 -21.203125 C 11.375 -19.398438 14.828125 -17.957031 18.640625 -16.875 C 22.453125 -15.789062 26.160156 -15.25 29.765625 -15.25 C 31.867188 -15.25 33.523438 -15.390625 34.734375 -15.671875 C 35.941406 -15.953125 36.820312 -16.351562 37.375 -16.875 C 37.9375 -17.40625 38.21875 -18.039062 38.21875 -18.78125 C 38.21875 -19.957031 37.566406 -20.882812 36.265625 -21.5625 C 34.960938 -22.25 33.242188 -22.828125 31.109375 -23.296875 C 28.972656 -23.765625 26.632812 -24.257812 24.09375 -24.78125 C 21.550781 -25.3125 18.992188 -26.007812 16.421875 -26.875 C 13.847656 -27.738281 11.488281 -28.882812 9.34375 -30.3125 C 7.207031 -31.738281 5.488281 -33.613281 4.1875 -35.9375 C 2.882812 -38.269531 2.234375 -41.171875 2.234375 -44.640625 C 2.234375 -48.671875 3.363281 -52.34375 5.625 -55.65625 C 7.882812 -58.976562 11.257812 -61.628906 15.75 -63.609375 C 20.25 -65.597656 25.847656 -66.59375 32.546875 -66.59375 C 36.953125 -66.59375 41.289062 -66.125 45.5625 -65.1875 C 49.84375 -64.257812 53.691406 -62.835938 57.109375 -60.921875 L 50.5 -45.015625 C 47.269531 -46.628906 44.148438 -47.835938 41.140625 -48.640625 C 38.140625 -49.441406 35.210938 -49.84375 32.359375 -49.84375 C 30.253906 -49.84375 28.582031 -49.65625 27.34375 -49.28125 C 26.101562 -48.914062 25.21875 -48.421875 24.6875 -47.796875 C 24.164062 -47.179688 23.90625 -46.5 23.90625 -45.75 C 23.90625 -44.632812 24.554688 -43.75 25.859375 -43.09375 C 27.160156 -42.445312 28.878906 -41.90625 31.015625 -41.46875 C 33.148438 -41.039062 35.503906 -40.578125 38.078125 -40.078125 C 40.648438 -39.585938 43.207031 -38.90625 45.75 -38.03125 C 48.289062 -37.164062 50.628906 -36.019531 52.765625 -34.59375 C 54.910156 -33.164062 56.632812 -31.304688 57.9375 -29.015625 C 59.238281 -26.722656 59.890625 -23.867188 59.890625 -20.453125 C 59.890625 -16.492188 58.757812 -12.851562 56.5 -9.53125 C 54.238281 -6.21875 50.875 -3.550781 46.40625 -1.53125 C 41.945312 0.476562 36.335938 1.484375 29.578125 1.484375 Z M 29.578125 1.484375" transform="translate(901.459 494.82)"/></g></g></g><g fill="#FFF"><g><g><path d="M 29.578125 1.484375 C 24.117188 1.484375 18.847656 0.863281 13.765625 -0.375 C 8.679688 -1.613281 4.492188 -3.222656 1.203125 -5.203125 L 8.28125 -21.203125 C 11.375 -19.398438 14.828125 -17.957031 18.640625 -16.875 C 22.453125 -15.789062 26.160156 -15.25 29.765625 -15.25 C 31.867188 -15.25 33.523438 -15.390625 34.734375 -15.671875 C 35.941406 -15.953125 36.820312 -16.351562 37.375 -16.875 C 37.9375 -17.40625 38.21875 -18.039062 38.21875 -18.78125 C 38.21875 -19.957031 37.566406 -20.882812 36.265625 -21.5625 C 34.960938 -22.25 33.242188 -22.828125 31.109375 -23.296875 C 28.972656 -23.765625 26.632812 -24.257812 24.09375 -24.78125 C 21.550781 -25.3125 18.992188 -26.007812 16.421875 -26.875 C 13.847656 -27.738281 11.488281 -28.882812 9.34375 -30.3125 C 7.207031 -31.738281 5.488281 -33.613281 4.1875 -35.9375 C 2.882812 -38.269531 2.234375 -41.171875 2.234375 -44.640625 C 2.234375 -48.671875 3.363281 -52.34375 5.625 -55.65625 C 7.882812 -58.976562 11.257812 -61.628906 15.75 -63.609375 C 20.25 -65.597656 25.847656 -66.59375 32.546875 -66.59375 C 36.953125 -66.59375 41.289062 -66.125 45.5625 -65.1875 C 49.84375 -64.257812 53.691406 -62.835938 57.109375 -60.921875 L 50.5 -45.015625 C 47.269531 -46.628906 44.148438 -47.835938 41.140625 -48.640625 C 38.140625 -49.441406 35.210938 -49.84375 32.359375 -49.84375 C 30.253906 -49.84375 28.582031 -49.65625 27.34375 -49.28125 C 26.101562 -48.914062 25.21875 -48.421875 24.6875 -47.796875 C 24.164062 -47.179688 23.90625 -46.5 23.90625 -45.75 C 23.90625 -44.632812 24.554688 -43.75 25.859375 -43.09375 C 27.160156 -42.445312 28.878906 -41.90625 31.015625 -41.46875 C 33.148438 -41.039062 35.503906 -40.578125 38.078125 -40.078125 C 40.648438 -39.585938 43.207031 -38.90625 45.75 -38.03125 C 48.289062 -37.164062 50.628906 -36.019531 52.765625 -34.59375 C 54.910156 -33.164062 56.632812 -31.304688 57.9375 -29.015625 C 59.238281 -26.722656 59.890625 -23.867188 59.890625 -20.453125 C 59.890625 -16.492188 58.757812 -12.851562 56.5 -9.53125 C 54.238281 -6.21875 50.875 -3.550781 46.40625 -1.53125 C 41.945312 0.476562 36.335938 1.484375 29.578125 1.484375 Z M 29.578125 1.484375" transform="translate(664.219 624.57)"/></g></g></g><g fill="#FFF"><g><g><path d="M 48.03125 -65.796875 L 70.21875 -65.796875 L 70.21875 0 L 48.03125 0 Z M 27.546875 0 L 5.359375 0 L 5.359375 -65.796875 L 27.546875 -65.796875 Z M 49.53125 -24.25 L 26.03125 -24.25 L 26.03125 -42.484375 L 49.53125 -42.484375 Z M 49.53125 -24.25" transform="translate(386.086 626.57)"/></g></g></g><g fill="#FFF"><g><g><path d="M 5.359375 0 L 5.359375 -65.796875 L 27.546875 -65.796875 L 27.546875 0 Z M 5.359375 0" transform="translate(489.858 626.57)"/></g></g></g><g fill="#FFF"><g><g><path d="M 29.890625 1.5 C 24.378906 1.5 19.050781 0.875 13.90625 -0.375 C 8.769531 -1.625 4.539062 -3.253906 1.21875 -5.265625 L 8.359375 -21.4375 C 11.492188 -19.613281 14.988281 -18.15625 18.84375 -17.0625 C 22.695312 -15.96875 26.441406 -15.421875 30.078125 -15.421875 C 32.210938 -15.421875 33.890625 -15.5625 35.109375 -15.84375 C 36.328125 -16.125 37.21875 -16.53125 37.78125 -17.0625 C 38.351562 -17.59375 38.640625 -18.234375 38.640625 -18.984375 C 38.640625 -20.179688 37.976562 -21.125 36.65625 -21.8125 C 35.34375 -22.5 33.601562 -23.078125 31.4375 -23.546875 C 29.28125 -24.015625 26.914062 -24.515625 24.34375 -25.046875 C 21.769531 -25.578125 19.179688 -26.28125 16.578125 -27.15625 C 13.984375 -28.039062 11.601562 -29.203125 9.4375 -30.640625 C 7.28125 -32.085938 5.539062 -33.984375 4.21875 -36.328125 C 2.90625 -38.679688 2.25 -41.613281 2.25 -45.125 C 2.25 -49.195312 3.394531 -52.90625 5.6875 -56.25 C 7.976562 -59.601562 11.394531 -62.28125 15.9375 -64.28125 C 20.476562 -66.289062 26.132812 -67.296875 32.90625 -67.296875 C 37.351562 -67.296875 41.738281 -66.828125 46.0625 -65.890625 C 50.382812 -64.953125 54.269531 -63.507812 57.71875 -61.5625 L 51.046875 -45.5 C 47.785156 -47.125 44.632812 -48.34375 41.59375 -49.15625 C 38.550781 -49.976562 35.59375 -50.390625 32.71875 -50.390625 C 30.582031 -50.390625 28.882812 -50.195312 27.625 -49.8125 C 26.375 -49.4375 25.484375 -48.9375 24.953125 -48.3125 C 24.421875 -47.6875 24.15625 -47 24.15625 -46.25 C 24.15625 -45.125 24.8125 -44.226562 26.125 -43.5625 C 27.445312 -42.90625 29.1875 -42.359375 31.34375 -41.921875 C 33.507812 -41.484375 35.890625 -41.015625 38.484375 -40.515625 C 41.085938 -40.015625 43.675781 -39.320312 46.25 -38.4375 C 48.820312 -37.5625 51.1875 -36.40625 53.34375 -34.96875 C 55.507812 -33.53125 57.25 -31.648438 58.5625 -29.328125 C 59.875 -27.003906 60.53125 -24.125 60.53125 -20.6875 C 60.53125 -16.664062 59.382812 -12.976562 57.09375 -9.625 C 54.8125 -6.28125 51.414062 -3.585938 46.90625 -1.546875 C 42.394531 0.484375 36.722656 1.5 29.890625 1.5 Z M 29.890625 1.5" transform="translate(550.955 626.57)"/></g></g></g><g fill="#FFF"><g><g><path d="M 19.640625 0 L 19.640625 -48.59375 L 0.375 -48.59375 L 0.375 -65.796875 L 61.09375 -65.796875 L 61.09375 -48.59375 L 41.828125 -48.59375 L 41.828125 0 Z M 19.640625 0" transform="translate(640.91 626.57)"/></g></g></g><g fill="#FFF"><g><g><path d="M 39.953125 1.5 C 34.554688 1.5 29.585938 0.65625 25.046875 -1.03125 C 20.503906 -2.726562 16.570312 -5.125 13.25 -8.21875 C 9.925781 -11.320312 7.335938 -14.972656 5.484375 -19.171875 C 3.640625 -23.367188 2.71875 -27.945312 2.71875 -32.90625 C 2.71875 -37.914062 3.640625 -42.503906 5.484375 -46.671875 C 7.335938 -50.835938 9.925781 -54.472656 13.25 -57.578125 C 16.570312 -60.679688 20.503906 -63.078125 25.046875 -64.765625 C 29.585938 -66.453125 34.523438 -67.296875 39.859375 -67.296875 C 45.242188 -67.296875 50.191406 -66.453125 54.703125 -64.765625 C 59.210938 -63.078125 63.128906 -60.679688 66.453125 -57.578125 C 69.773438 -54.472656 72.359375 -50.835938 74.203125 -46.671875 C 76.054688 -42.503906 76.984375 -37.914062 76.984375 -32.90625 C 76.984375 -27.945312 76.054688 -23.367188 74.203125 -19.171875 C 72.359375 -14.972656 69.773438 -11.320312 66.453125 -8.21875 C 63.128906 -5.125 59.210938 -2.726562 54.703125 -1.03125 C 50.191406 0.65625 45.273438 1.5 39.953125 1.5 Z M 39.859375 -16.453125 C 41.921875 -16.453125 43.84375 -16.828125 45.625 -17.578125 C 47.414062 -18.328125 48.984375 -19.40625 50.328125 -20.8125 C 51.679688 -22.226562 52.734375 -23.953125 53.484375 -25.984375 C 54.234375 -28.023438 54.609375 -30.332031 54.609375 -32.90625 C 54.609375 -35.46875 54.234375 -37.765625 53.484375 -39.796875 C 52.734375 -41.835938 51.679688 -43.5625 50.328125 -44.96875 C 48.984375 -46.382812 47.414062 -47.46875 45.625 -48.21875 C 43.84375 -48.96875 41.921875 -49.34375 39.859375 -49.34375 C 37.785156 -49.34375 35.851562 -48.96875 34.0625 -48.21875 C 32.28125 -47.46875 30.71875 -46.382812 29.375 -44.96875 C 28.03125 -43.5625 26.976562 -41.835938 26.21875 -39.796875 C 25.46875 -37.765625 25.09375 -35.46875 25.09375 -32.90625 C 25.09375 -30.332031 25.46875 -28.023438 26.21875 -25.984375 C 26.976562 -23.953125 28.03125 -22.226562 29.375 -20.8125 C 30.71875 -19.40625 32.28125 -18.328125 34.0625 -17.578125 C 35.851562 -16.828125 37.785156 -16.453125 39.859375 -16.453125 Z M 39.859375 -16.453125" transform="translate(730.581 626.57)"/></g></g></g><g fill="#FFF"><g><g><path d="M 5.359375 0 L 5.359375 -65.796875 L 37.03125 -65.796875 C 43.175781 -65.796875 48.488281 -64.789062 52.96875 -62.78125 C 57.445312 -60.78125 60.90625 -57.914062 63.34375 -54.1875 C 65.789062 -50.457031 67.015625 -46.054688 67.015625 -40.984375 C 67.015625 -35.910156 65.789062 -31.539062 63.34375 -27.875 C 60.90625 -24.207031 57.445312 -21.398438 52.96875 -19.453125 C 48.488281 -17.515625 43.175781 -16.546875 37.03125 -16.546875 L 17.671875 -16.546875 L 27.546875 -25.65625 L 27.546875 0 Z M 44.75 0 L 28.578125 -23.96875 L 52.078125 -23.96875 L 68.4375 0 Z M 27.546875 -23.21875 L 17.671875 -33.28125 L 35.625 -33.28125 C 38.695312 -33.28125 40.96875 -33.96875 42.4375 -35.34375 C 43.914062 -36.71875 44.65625 -38.597656 44.65625 -40.984375 C 44.65625 -43.367188 43.914062 -45.25 42.4375 -46.625 C 40.96875 -48 38.695312 -48.6875 35.625 -48.6875 L 17.671875 -48.6875 L 27.546875 -58.75 Z M 27.546875 -23.21875" transform="translate(838.489 626.57)"/></g></g></g><g fill="#FFF"><g><g><path d="M 22.28125 0 L 22.28125 -28.859375 L 27.359375 -15.609375 L -2.53125 -65.796875 L 20.875 -65.796875 L 41.078125 -31.484375 L 27.453125 -31.484375 L 47.84375 -65.796875 L 69.28125 -65.796875 L 39.578125 -15.609375 L 44.46875 -28.859375 L 44.46875 0 Z M 22.28125 0" transform="translate(936.715 626.57)"/></g></g></g><g fill="#FFF"><g><g><path d="M 5.296875 0 L 5.296875 -65.09375 L 27.25 -65.09375 L 27.25 -17.015625 L 56.640625 -17.015625 L 56.640625 0 Z M 5.296875 0" transform="translate(384.035 758.32)"/></g></g></g><g fill="#FFF"><g><g><path d="M 5.296875 0 L 5.296875 -65.09375 L 27.25 -65.09375 L 27.25 0 Z M 5.296875 0" transform="translate(525.105 758.32)"/></g></g></g><g fill="#FFF"><g><g><path d="M 25.765625 0 L -1.765625 -65.09375 L 21.859375 -65.09375 L 44.265625 -10.140625 L 30.21875 -10.140625 L 53.28125 -65.09375 L 74.859375 -65.09375 L 47.34375 0 Z M 25.765625 0" transform="translate(641.344 758.32)"/></g></g></g><g fill="#FFF"><g><g><path d="M 25.390625 -40.921875 L 54.40625 -40.921875 L 54.40625 -25.109375 L 25.390625 -25.109375 Z M 26.875 -16.546875 L 59.421875 -16.546875 L 59.421875 0 L 5.296875 0 L 5.296875 -65.09375 L 58.21875 -65.09375 L 58.21875 -48.546875 L 26.875 -48.546875 Z M 26.875 -16.546875" transform="translate(798.129 758.32)"/></g></g></g><g fill="#FFF"><g><g><path d="M 29.578125 1.484375 C 24.117188 1.484375 18.847656 0.863281 13.765625 -0.375 C 8.679688 -1.613281 4.492188 -3.222656 1.203125 -5.203125 L 8.28125 -21.203125 C 11.375 -19.398438 14.828125 -17.957031 18.640625 -16.875 C 22.453125 -15.789062 26.160156 -15.25 29.765625 -15.25 C 31.867188 -15.25 33.523438 -15.390625 34.734375 -15.671875 C 35.941406 -15.953125 36.820312 -16.351562 37.375 -16.875 C 37.9375 -17.40625 38.21875 -18.039062 38.21875 -18.78125 C 38.21875 -19.957031 37.566406 -20.882812 36.265625 -21.5625 C 34.960938 -22.25 33.242188 -22.828125 31.109375 -23.296875 C 28.972656 -23.765625 26.632812 -24.257812 24.09375 -24.78125 C 21.550781 -25.3125 18.992188 -26.007812 16.421875 -26.875 C 13.847656 -27.738281 11.488281 -28.882812 9.34375 -30.3125 C 7.207031 -31.738281 5.488281 -33.613281 4.1875 -35.9375 C 2.882812 -38.269531 2.234375 -41.171875 2.234375 -44.640625 C 2.234375 -48.671875 3.363281 -52.34375 5.625 -55.65625 C 7.882812 -58.976562 11.257812 -61.628906 15.75 -63.609375 C 20.25 -65.597656 25.847656 -66.59375 32.546875 -66.59375 C 36.953125 -66.59375 41.289062 -66.125 45.5625 -65.1875 C 49.84375 -64.257812 53.691406 -62.835938 57.109375 -60.921875 L 50.5 -45.015625 C 47.269531 -46.628906 44.148438 -47.835938 41.140625 -48.640625 C 38.140625 -49.441406 35.210938 -49.84375 32.359375 -49.84375 C 30.253906 -49.84375 28.582031 -49.65625 27.34375 -49.28125 C 26.101562 -48.914062 25.21875 -48.421875 24.6875 -47.796875 C 24.164062 -47.179688 23.90625 -46.5 23.90625 -45.75 C 23.90625 -44.632812 24.554688 -43.75 25.859375 -43.09375 C 27.160156 -42.445312 28.878906 -41.90625 31.015625 -41.46875 C 33.148438 -41.039062 35.503906 -40.578125 38.078125 -40.078125 C 40.648438 -39.585938 43.207031 -38.90625 45.75 -38.03125 C 48.289062 -37.164062 50.628906 -36.019531 52.765625 -34.59375 C 54.910156 -33.164062 56.632812 -31.304688 57.9375 -29.015625 C 59.238281 -26.722656 59.890625 -23.867188 59.890625 -20.453125 C 59.890625 -16.492188 58.757812 -12.851562 56.5 -9.53125 C 54.238281 -6.21875 50.875 -3.550781 46.40625 -1.53125 C 41.945312 0.476562 36.335938 1.484375 29.578125 1.484375 Z M 29.578125 1.484375" transform="translate(944.402 758.32)"/></g></g></g><g fill="#FFF"><g><g><path d="M 12.765625 0 L 12.765625 -156.796875 L 56.21875 -156.796875 L 118.9375 -54.4375 L 96.09375 -54.4375 L 157.03125 -156.796875 L 200.484375 -156.796875 L 200.921875 0 L 152.765625 0 L 152.3125 -84.21875 L 159.9375 -84.21875 L 118.265625 -14.109375 L 94.96875 -14.109375 L 51.515625 -84.21875 L 60.921875 -84.21875 L 60.921875 0 Z M 12.765625 0" transform="translate(.727 939.545)"/></g></g></g><g fill="#FFF"><g><g><path d="M -4.25 0 L 64.28125 -156.796875 L 116.25 -156.796875 L 184.796875 0 L 130.140625 0 L 79.515625 -131.71875 L 100.125 -131.71875 L 49.5 0 Z M 36.515625 -27.328125 L 49.953125 -65.40625 L 122.078125 -65.40625 L 135.515625 -27.328125 Z M 36.515625 -27.328125" transform="translate(214.417 939.545)"/></g></g></g><g fill="#FFF"><g><g><path d="M 46.8125 0 L 46.8125 -115.8125 L 0.890625 -115.8125 L 0.890625 -156.796875 L 145.59375 -156.796875 L 145.59375 -115.8125 L 99.6875 -115.8125 L 99.6875 0 Z M 46.8125 0" transform="translate(394.957 939.545)"/></g></g></g><g fill="#FFF"><g><g><path d="M 46.8125 0 L 46.8125 -115.8125 L 0.890625 -115.8125 L 0.890625 -156.796875 L 145.59375 -156.796875 L 145.59375 -115.8125 L 99.6875 -115.8125 L 99.6875 0 Z M 46.8125 0" transform="translate(541.45 939.545)"/></g></g></g><g fill="#FFF"><g><g><path d="M 61.15625 -98.5625 L 131.046875 -98.5625 L 131.046875 -60.484375 L 61.15625 -60.484375 Z M 64.734375 -39.875 L 143.140625 -39.875 L 143.140625 0 L 12.765625 0 L 12.765625 -156.796875 L 140.21875 -156.796875 L 140.21875 -116.921875 L 64.734375 -116.921875 Z M 64.734375 -39.875" transform="translate(687.942 939.545)"/></g></g></g><g fill="#FFF"><g><g><path d="M 12.765625 0 L 12.765625 -156.796875 L 88.25 -156.796875 C 102.882812 -156.796875 115.539062 -154.40625 126.21875 -149.625 C 136.894531 -144.851562 145.144531 -138.023438 150.96875 -129.140625 C 156.800781 -120.253906 159.71875 -109.757812 159.71875 -97.65625 C 159.71875 -85.5625 156.800781 -75.144531 150.96875 -66.40625 C 145.144531 -57.675781 136.894531 -50.992188 126.21875 -46.359375 C 115.539062 -41.734375 102.882812 -39.421875 88.25 -39.421875 L 42.109375 -39.421875 L 65.625 -61.15625 L 65.625 0 Z M 106.625 0 L 68.09375 -57.125 L 124.09375 -57.125 L 163.078125 0 Z M 65.625 -55.328125 L 42.109375 -79.296875 L 84.890625 -79.296875 C 92.210938 -79.296875 97.628906 -80.9375 101.140625 -84.21875 C 104.648438 -87.507812 106.40625 -91.988281 106.40625 -97.65625 C 106.40625 -103.332031 104.648438 -107.8125 101.140625 -111.09375 C 97.628906 -114.382812 92.210938 -116.03125 84.890625 -116.03125 L 42.109375 -116.03125 L 65.625 -140 Z M 65.625 -55.328125" transform="translate(838.69 939.545)"/></g></g></g></svg>